999
PipeCut Studio - ban ve mau (don vi mm)
0
SECTION
2
HEADER
9
$INSUNITS
70
4
0
ENDSEC
0
SECTION
2
ENTITIES
0
LINE
8
CAT
10
8.0000
20
0.0000
11
112.0000
21
0.0000
0
ARC
8
CAT
10
112.0000
20
8.0000
40
8.0000
50
270.0000
51
360.0000
0
LINE
8
CAT
10
120.0000
20
8.0000
11
120.0000
21
22.0000
0
ARC
8
CAT
10
112.0000
20
22.0000
40
8.0000
50
0.0000
51
90.0000
0
LINE
8
CAT
10
112.0000
20
30.0000
11
8.0000
21
30.0000
0
ARC
8
CAT
10
8.0000
20
22.0000
40
8.0000
50
90.0000
51
180.0000
0
LINE
8
CAT
10
0.0000
20
22.0000
11
0.0000
21
8.0000
0
ARC
8
CAT
10
8.0000
20
8.0000
40
8.0000
50
180.0000
51
270.0000
0
CIRCLE
8
LO
10
20.0000
20
15.0000
40
3.5000
0
CIRCLE
8
LO
10
100.0000
20
15.0000
40
3.5000
0
ENDSEC
0
EOF
